
<?xml version="1.0" encoding="utf-8"?>
<svg version="1.1" id="Layer_1"
xmlns="http://www.w3.org/2000/svg"
xmlns:xlink="http://www.w3.org/1999/xlink"
width="273px" height="280px"
xml:space="preserve">
<g id="PathID_63" transform="matrix(2.5343, 0, 0, 2.5343, 136.9, 140.45)" opacity="1">
<path style="fill:#369ED6;fill-opacity:1" d="M36 -36.1Q51 -21.1 51 0Q51 21.1 36 36Q21.1 51 0 51Q-21.1 51 -36.1 36Q-51 21.1 -51 0Q-51 -21.1 -36.1 -36.1Q-21.1 -51 0 -51Q21.1 -51 36 -36.1" />
</g>
<g id="PathID_64" transform="matrix(2.5343, 0, 0, 2.5343, 136.9, 140.45)" opacity="1">
</g>
<g id="PathID_65" transform="matrix(5.92389, 0, 0, 5.92389, 262.5, 224.9)" opacity="1">
<path style="fill:#5B6670;fill-opacity:1" d="M9.75 -25.7L11.6 -26.25Q12.6 -26.6 13.85 -26.85Q15.15 -27.15 16.7 -27.3Q18.25 -27.5 20.3 -27.5Q22.75 -27.5 24.35 -26.9Q26 -26.3 27.3 -25.05Q29.2 -26.15 31.05 -26.8Q32.95 -27.5 35.45 -27.5Q37.85 -27.5 39.55 -26.85Q41.3 -26.25 42.4 -25.05Q43.55 -23.85 44.05 -22.15Q44.55 -20.5 44.55 -18.5Q44.55 -17.6 44.4 -16.55Q44.3 -15.55 44.05 -14.5L40.6 0L32.95 0L36.35 -14.2L36.65 -15.8Q36.85 -16.7 36.85 -17.6Q36.85 -19 36.15 -20.05Q35.5 -21.1 33.55 -21.1Q32.5 -21.1 31.5 -20.7Q30.55 -20.35 29.75 -19.95Q29.9 -19.55 29.9 -19.15L29.9 -18.5Q29.9 -17.6 29.75 -16.55L29.35 -14.5L25.9 0L18.25 0L21.65 -14.2L21.95 -15.8Q22.15 -16.7 22.15 -17.6Q22.15 -19 21.45 -20.05Q20.8 -21.1 18.85 -21.1Q18.05 -21.1 17.45 -21L16.15 -20.8L11.2 0L3.55 0L9.75 -25.7" />
</g>
<g id="PathID_66" transform="matrix(5.92389, 0, 0, 5.92389, 262.5, 224.9)" opacity="1">
</g>
<g id="PathID_67" transform="matrix(5.92389, 0, 0, 5.92389, 518.9, 224.9)" opacity="1">
<path style="fill:#5B6670;fill-opacity:1" d="M15.75 0.75Q13.05 0.75 11.05 -0.05Q9.05 -0.9 7.75 -2.35Q6.45 -3.85 5.75 -5.85Q5.1 -7.9 5.1 -10.35Q5.1 -13.45 6.1 -16.5Q7.1 -19.6 9.05 -22.05Q11 -24.5 13.8 -26.05Q16.6 -27.6 20.25 -27.6Q22.9 -27.6 24.9 -26.8Q26.95 -26 28.25 -24.5Q29.55 -23 30.2 -20.95Q30.9 -18.95 30.9 -16.5Q30.9 -13.45 29.9 -10.35Q28.95 -7.3 27.05 -4.85Q25.15 -2.4 22.3 -0.8Q19.5 0.75 15.75 0.75M19.55 -21.15Q17.85 -21.15 16.55 -20.2Q15.3 -19.25 14.4 -17.75Q13.55 -16.25 13.1 -14.45Q12.65 -12.7 12.65 -11.15Q12.65 -8.55 13.45 -7.1Q14.3 -5.7 16.45 -5.7Q18.15 -5.7 19.4 -6.65Q20.7 -7.65 21.55 -9.1Q22.45 -10.6 22.85 -12.35Q23.3 -14.15 23.3 -15.75Q23.3 -18.35 22.5 -19.75Q21.7 -21.15 19.55 -21.15" />
</g>
<g id="PathID_68" transform="matrix(5.92389, 0, 0, 5.92389, 518.9, 224.9)" opacity="1">
</g>
<g id="PathID_69" transform="matrix(5.92389, 0, 0, 5.92389, 692.95, 224.9)" opacity="1">
<path style="fill:#5B6670;fill-opacity:1" d="M9.75 -25.7L11.65 -26.25Q12.7 -26.6 14 -26.85Q15.35 -27.15 16.95 -27.3Q18.55 -27.5 20.6 -27.5Q26.65 -27.5 28.9 -24Q31.15 -20.55 29.65 -14.5L26.2 0L18.55 0L21.95 -14.2Q22.25 -15.55 22.4 -16.8Q22.6 -18.05 22.4 -19Q22.2 -19.95 21.45 -20.5Q20.7 -21.1 19.2 -21.1Q17.7 -21.1 16.15 -20.8L11.2 0L3.55 0L9.75 -25.7" />
</g>
<g id="PathID_70" transform="matrix(5.92389, 0, 0, 5.92389, 692.95, 224.9)" opacity="1">
</g>
<g id="PathID_71" transform="matrix(5.92389, 0, 0, 5.92389, 865, 224.9)" opacity="1">
<path style="fill:#5B6670;fill-opacity:1" d="M5.1 -10.5Q5.1 -13.8 6.25 -16.85Q7.4 -19.95 9.5 -22.3Q11.6 -24.7 14.6 -26.15Q17.6 -27.6 21.2 -27.6Q23 -27.6 24.55 -27.1Q26.1 -26.6 27.25 -25.6Q28.4 -24.65 29 -23.25Q29.65 -21.85 29.65 -20.05Q29.65 -17.2 28.35 -15.2Q27.1 -13.2 24.8 -11.95Q22.55 -10.7 19.4 -10.1Q16.3 -9.55 12.6 -9.55Q13 -7.4 14.2 -6.5Q15.4 -5.6 18 -5.6Q19.65 -5.6 21.3 -5.85Q23 -6.15 24.5 -6.75L25.05 -0.75Q23.65 -0.2 21.4 0.25Q19.2 0.75 16.55 0.75Q13.4 0.75 11.2 -0.15Q9.05 -1.05 7.65 -2.55Q6.3 -4.1 5.7 -6.15Q5.1 -8.2 5.1 -10.5M20 -21.6Q17.4 -21.6 15.4 -19.7Q13.45 -17.85 12.85 -14.75Q16 -14.85 17.95 -15.3Q19.9 -15.75 20.95 -16.35Q22.05 -16.95 22.4 -17.65Q22.75 -18.4 22.75 -19.1Q22.75 -21.6 20 -21.6" />
</g>
<g id="PathID_72" transform="matrix(5.92389, 0, 0, 5.92389, 865, 224.9)" opacity="1">
</g>
<g id="PathID_73" transform="matrix(5.92389, 0, 0, 5.92389, 1025.8, 224.9)" opacity="1">
<path style="fill:#5B6670;fill-opacity:1" d="M10.9 -33.6L18.8 -34.85L16.85 -26.9L25.35 -26.9L23.85 -20.65L15.4 -20.65L13.15 -11.25Q12.85 -10.05 12.75 -9Q12.65 -8 13 -7.25Q13.35 -6.55 14.15 -6.1Q15 -5.7 16.4 -5.7Q17.65 -5.7 18.8 -5.9Q19.95 -6.15 21.1 -6.6L21.7 -0.75Q20.15 -0.2 18.35 0.2Q16.55 0.65 14.1 0.65Q10.55 0.65 8.6 -0.4Q6.7 -1.45 5.85 -3.25Q5.05 -5.1 5.15 -7.45Q5.25 -9.8 5.85 -12.4L10.9 -33.6" />
</g>
<g id="PathID_74" transform="matrix(5.92389, 0, 0, 5.92389, 1025.8, 224.9)" opacity="1">
</g>
<g id="PathID_75" transform="matrix(5.92389, 0, 0, 5.92389, 1151.85, 224.9)" opacity="1">
<path style="fill:#5B6670;fill-opacity:1" d="M28.8 -11.6Q28.1 -8.7 28.4 -5.75Q28.7 -2.8 29.55 -0.5L22.75 0.5L22.2 -0.7L21.7 -1.95Q20.25 -0.8 18.5 0Q16.75 0.75 14.6 0.75Q12.05 0.75 10.2 -0.15Q8.4 -1.05 7.25 -2.55Q6.1 -4.05 5.6 -6.05Q5.1 -8.1 5.1 -10.4Q5.1 -13.95 6.35 -17.05Q7.6 -20.2 9.8 -22.5Q12.05 -24.85 15.05 -26.15Q18.1 -27.5 21.65 -27.5L23.25 -27.45Q24.4 -27.4 25.85 -27.2Q27.35 -27.05 29 -26.65Q30.65 -26.25 32.15 -25.5L28.8 -11.6M23.5 -21L22.25 -21.15L20.95 -21.2Q19.25 -21.2 17.7 -20.35Q16.2 -19.5 15.05 -18.05Q13.95 -16.65 13.3 -14.8Q12.65 -13 12.65 -11Q12.65 -8.55 13.45 -7.1Q14.3 -5.65 16.5 -5.65Q17.7 -5.65 18.65 -6.1Q19.6 -6.6 20.65 -7.65L20.95 -10.35L21.5 -12.95L23.5 -21" />
</g>
<g id="PathID_76" transform="matrix(5.92389, 0, 0, 5.92389, 1151.85, 224.9)" opacity="1">
</g>
<g id="PathID_77" transform="matrix(5.27398, 0.0141791, 0, 5.274, 21.75, 210)" opacity="1">
<path style="fill:#FFFFFF;fill-opacity:1" d="M18.4 -14.25Q18.4 -17.95 17.45 -19.5Q16.5 -21.05 14.2 -21.05L12.7 -20.95L11.25 -20.75L11.25 0L3.6 0L3.6 -26L5.85 -26.5Q7.15 -26.8 8.6 -27L11.6 -27.4Q13.15 -27.55 14.65 -27.55Q17.55 -27.55 19.35 -26.8Q21.2 -26.05 22.4 -25Q24 -26.2 26.1 -26.85Q28.25 -27.55 30.05 -27.55Q33.3 -27.55 35.35 -26.65Q37.45 -25.75 38.65 -24.1Q39.9 -22.45 40.35 -20.2Q40.85 -17.95 40.85 -15.2L40.85 0L33.2 0L33.2 -14.25Q33.2 -17.95 32.25 -19.5Q31.3 -21.05 29 -21.05Q28.35 -21.05 27.25 -20.7Q26.2 -20.4 25.45 -19.95Q25.8 -18.75 25.9 -17.45Q26.05 -16.15 26.05 -14.65L26.05 0L18.4 0L18.4 -14.25" />
</g>
<g id="PathID_78" transform="matrix(5.27398, 0.0141791, 0, 5.274, 21.75, 210)" opacity="1">
</g>
<g id="PathID_79" transform="matrix(1.21864, 0, 0, 1.21864, 382.25, 58.45)" opacity="1">
</g>
<g id="PathID_80" transform="matrix(1.21864, 0, 0, 1.21864, 382.25, 58.45)" opacity="1">
<path style="fill:none;stroke-width:7.8;stroke-linecap:round;stroke-linejoin:round;stroke-miterlimit:3;stroke:#FFFFFF;stroke-opacity:1" d="M-44.95 6L44.95 -6" />
</g>
<g id="PathID_81" transform="matrix(1.2128, 0, 0, 1.2128, 473.75, 95.55)" opacity="1">
</g>
<g id="PathID_82" transform="matrix(1.2128, 0, 0, 1.2128, 473.75, 95.55)" opacity="1">
<path style="fill:none;stroke-width:7.8;stroke-linecap:round;stroke-linejoin:round;stroke-miterlimit:3;stroke:#FFFFFF;stroke-opacity:1" d="M-29.2 -37.2L29.25 37.25" />
</g>
<g id="PathID_83" transform="matrix(1.21864, -3.24308e-005, 3.24308e-005, 1.21864, 406.6, 140.15)" opacity="1">
</g>
<g id="PathID_84" transform="matrix(1.21864, -3.24308e-005, 3.24308e-005, 1.21864, 406.6, 140.15)" opacity="1">
<path style="fill:none;stroke-width:7.8;stroke-linecap:round;stroke-linejoin:round;stroke-miterlimit:3;stroke:#FFFFFF;stroke-opacity:1" d="M-29.2 -37.2L29.25 37.2" />
</g>
<g id="PathID_85" transform="matrix(0.0442646, -0.868827, 0.868827, 0.0442646, 474.95, 163.1)" opacity="1">
</g>
<g id="PathID_86" transform="matrix(0.0442646, -0.868827, 0.868827, 0.0442646, 474.95, 163.1)" opacity="1">
<path style="fill:none;stroke-width:7.8;stroke-linecap:round;stroke-linejoin:round;stroke-miterlimit:3;stroke:#FFFFFF;stroke-opacity:1" d="M-29.2 -37.25L29.25 37.25" />
</g>
<g id="PathID_87" transform="matrix(0.608861, -1.01267, 1.01556, 0.604035, 386, 192.55)" opacity="1">
</g>
<g id="PathID_88" transform="matrix(0.608861, -1.01267, 1.01556, 0.604035, 386, 192.55)" opacity="1">
<path style="fill:none;stroke-width:7.8;stroke-linecap:round;stroke-linejoin:round;stroke-miterlimit:3;stroke:#FFFFFF;stroke-opacity:1" d="M-29.2 -37.2L29.25 37.2" />
</g>
<g id="PathID_89" transform="matrix(-0.565479, -1.08627, 1.07503, -0.586557, 303.35, 119.45)" opacity="1">
</g>
<g id="PathID_90" transform="matrix(-0.565479, -1.08627, 1.07503, -0.586557, 303.35, 119.45)" opacity="1">
<path style="fill:none;stroke-width:7.8;stroke-linecap:round;stroke-linejoin:round;stroke-miterlimit:3;stroke:#FFFFFF;stroke-opacity:1" d="M-29.2 -37.25L29.25 37.25" />
</g>
<g id="PathID_91" transform="matrix(0.60944, 1.05531, -1.05531, 0.60944, 349.95, 146.25)" opacity="1">
</g>
<g id="PathID_92" transform="matrix(0.60944, 1.05531, -1.05531, 0.60944, 349.95, 146.25)" opacity="1">
<path style="fill:none;stroke-width:7.8;stroke-linecap:round;stroke-linejoin:round;stroke-miterlimit:3;stroke:#FFFFFF;stroke-opacity:1" d="M-29.25 -37.2L29.25 37.2" />
</g>
<g id="PathID_93" transform="matrix(0.478932, -0.837261, 0.837261, 0.478932, 462.9, 147.6)" opacity="1">
</g>
<g id="PathID_94" transform="matrix(0.478932, -0.837261, 0.837261, 0.478932, 462.9, 147.6)" opacity="1">
<path style="fill:none;stroke-width:7.8;stroke-linecap:round;stroke-linejoin:round;stroke-miterlimit:3;stroke:#FFFFFF;stroke-opacity:1" d="M-29.15 -37.2L29.2 37.25" />
</g>
<g id="PathID_95" transform="matrix(0.452874, 0.78029, -0.78029, 0.452874, 420.75, 96.6)" opacity="1">
</g>
<g id="PathID_96" transform="matrix(0.452874, 0.78029, -0.78029, 0.452874, 420.75, 96.6)" opacity="1">
<path style="fill:none;stroke-width:7.8;stroke-linecap:round;stroke-linejoin:round;stroke-miterlimit:3;stroke:#FFFFFF;stroke-opacity:1" d="M-29.25 -37.2L29.15 37.25" />
</g>
<g id="PathID_97" transform="matrix(0.0949118, -0.836654, 0.836654, 0.0949118, 405.1, 72.45)" opacity="1">
</g>
<g id="PathID_98" transform="matrix(0.0949118, -0.836654, 0.836654, 0.0949118, 405.1, 72.45)" opacity="1">
<path style="fill:none;stroke-width:7.8;stroke-linecap:round;stroke-linejoin:round;stroke-miterlimit:3;stroke:#FFFFFF;stroke-opacity:1" d="M-29.2 -37.2L29.2 37.2" />
</g>
<g id="PathID_99" transform="matrix(1.20564, -3.94714e-005, 3.94714e-005, 1.20564, 315.15, 217.8)" opacity="1">
</g>
<g id="PathID_100" transform="matrix(1.20564, -3.94714e-005, 3.94714e-005, 1.20564, 315.15, 217.8)" opacity="1">
<path style="fill:none;stroke-width:7.8;stroke-linecap:round;stroke-linejoin:round;stroke-miterlimit:3;stroke:#FFFFFF;stroke-opacity:1" d="M-29.2 -37.25L29.25 37.25" />
</g>
<g id="PathID_101" transform="matrix(0.607292, -1.05654, 1.05654, 0.607292, 410.65, 256.25)" opacity="1">
</g>
<g id="PathID_102" transform="matrix(0.607292, -1.05654, 1.05654, 0.607292, 410.65, 256.25)" opacity="1">
<path style="fill:none;stroke-width:7.8;stroke-linecap:round;stroke-linejoin:round;stroke-miterlimit:3;stroke:#FFFFFF;stroke-opacity:1" d="M-29.25 -37.2L29.2 37.25" />
</g>
<g id="PathID_103" transform="matrix(0.612046, 1.02187, -1.03049, 0.59742, 488.15, 194.4)" opacity="1">
</g>
<g id="PathID_104" transform="matrix(0.612046, 1.02187, -1.03049, 0.59742, 488.15, 194.4)" opacity="1">
<path style="fill:none;stroke-width:7.8;stroke-linecap:round;stroke-linejoin:round;stroke-miterlimit:3;stroke:#FFFFFF;stroke-opacity:1" d="M-29.2 -37.25L29.2 37.15" />
</g>
<g id="PathID_105" transform="matrix(0.690071, 0.21359, -0.21359, 0.690071, 340.4, 230.75)" opacity="1">
</g>
<g id="PathID_106" transform="matrix(0.690071, 0.21359, -0.21359, 0.690071, 340.4, 230.75)" opacity="1">
<path style="fill:none;stroke-width:7.8;stroke-linecap:round;stroke-linejoin:round;stroke-miterlimit:3;stroke:#FFFFFF;stroke-opacity:1" d="M-29.25 -37.25L29.2 37.25" />
</g>
<g id="PathID_107" transform="matrix(0.672222, 0.196129, -0.196129, 0.672222, 454.4, 215.7)" opacity="1">
</g>
<g id="PathID_108" transform="matrix(0.672222, 0.196129, -0.196129, 0.672222, 454.4, 215.7)" opacity="1">
<path style="fill:none;stroke-width:7.8;stroke-linecap:round;stroke-linejoin:round;stroke-miterlimit:3;stroke:#FFFFFF;stroke-opacity:1" d="M-29.3 -37.25L29.2 37.2" />
</g>
<g id="PathID_109" transform="matrix(0.543554, -0.197626, 0.197626, 0.543554, 304.25, 186.05)" opacity="1">
</g>
<g id="PathID_110" transform="matrix(0.543554, -0.197626, 0.197626, 0.543554, 304.25, 186.05)" opacity="1">
<path style="fill:none;stroke-width:7.8;stroke-linecap:round;stroke-linejoin:round;stroke-miterlimit:3;stroke:#FFFFFF;stroke-opacity:1" d="M-29.25 -37.3L29.25 37.2" />
</g>
<g id="PathID_111" transform="matrix(0.804202, -1.24945e-005, 1.24945e-005, 0.804202, 443.7, 218)" opacity="1">
</g>
<g id="PathID_112" transform="matrix(0.804202, -1.24945e-005, 1.24945e-005, 0.804202, 443.7, 218)" opacity="1">
<path style="fill:none;stroke-width:7.8;stroke-linecap:round;stroke-linejoin:round;stroke-miterlimit:3;stroke:#FFFFFF;stroke-opacity:1" d="M-29.25 -37.25L29.2 37.25" />
</g>
<g id="PathID_113" transform="matrix(0.378637, 0.684003, -0.669806, 0.403219, 366.95, 228.45)" opacity="1">
</g>
<g id="PathID_114" transform="matrix(0.378637, 0.684003, -0.669806, 0.403219, 366.95, 228.45)" opacity="1">
<path style="fill:none;stroke-width:7.8;stroke-linecap:round;stroke-linejoin:round;stroke-miterlimit:3;stroke:#FFFFFF;stroke-opacity:1" d="M-29.2 -37.2L29.2 37.25" />
</g>
<g id="PathID_115" transform="matrix(0.538751, -0.188424, 0.188424, 0.538751, 417.8, 171.25)" opacity="1">
</g>
<g id="PathID_116" transform="matrix(0.538751, -0.188424, 0.188424, 0.538751, 417.8, 171.25)" opacity="1">
<path style="fill:none;stroke-width:7.8;stroke-linecap:round;stroke-linejoin:round;stroke-miterlimit:3;stroke:#FFFFFF;stroke-opacity:1" d="M-29.2 -37.25L29.2 37.25" />
</g>
<g id="PathID_117" transform="matrix(0.592006, -1.57546e-005, 1.57546e-005, 0.592006, 346.1, 88.5)" opacity="1">
</g>
<g id="PathID_118" transform="matrix(0.592006, -1.57546e-005, 1.57546e-005, 0.592006, 346.1, 88.5)" opacity="1">
<path style="fill:none;stroke-width:7.8;stroke-linecap:round;stroke-linejoin:round;stroke-miterlimit:3;stroke:#FFFFFF;stroke-opacity:1" d="M-29.25 -37.3L29.2 37.25" />
</g>
<g id="PathID_119" transform="matrix(0.504211, -0.164529, 0.164529, 0.504211, 349.8, 80.4)" opacity="1">
</g>
<g id="PathID_120" transform="matrix(0.504211, -0.164529, 0.164529, 0.504211, 349.8, 80.4)" opacity="1">
<path style="fill:none;stroke-width:7.8;stroke-linecap:round;stroke-linejoin:round;stroke-miterlimit:3;stroke:#FFFFFF;stroke-opacity:1" d="M-29.25 -37.3L29.2 37.2" />
</g>
<g id="PathID_121" transform="matrix(0.413626, 0.432499, 0.432499, -0.413626, 312.3, 169.6)" opacity="1">
</g>
<g id="PathID_122" transform="matrix(0.413626, 0.432499, 0.432499, -0.413626, 312.3, 169.6)" opacity="1">
<path style="fill:none;stroke-width:7.8;stroke-linecap:round;stroke-linejoin:round;stroke-miterlimit:3;stroke:#FFFFFF;stroke-opacity:1" d="M-29.25 -37.25L29.2 37.3" />
</g>
<g id="PathID_123" transform="matrix(0.621397, 0.202468, -0.202468, 0.621397, 383.3, 125.5)" opacity="1">
</g>
<g id="PathID_124" transform="matrix(0.621397, 0.202468, -0.202468, 0.621397, 383.3, 125.5)" opacity="1">
<path style="fill:none;stroke-width:7.8;stroke-linecap:round;stroke-linejoin:round;stroke-miterlimit:3;stroke:#FFFFFF;stroke-opacity:1" d="M-29.25 -37.2L29.2 37.25" />
</g>
<g id="PathID_125" transform="matrix(0.0560793, -0.790449, 0.790449, 0.0560793, 364.2, 176.85)" opacity="1">
</g>
<g id="PathID_126" transform="matrix(0.0560793, -0.790449, 0.790449, 0.0560793, 364.2, 176.85)" opacity="1">
<path style="fill:none;stroke-width:7.8;stroke-linecap:round;stroke-linejoin:round;stroke-miterlimit:3;stroke:#FFFFFF;stroke-opacity:1" d="M-29.2 -37.2L29.2 37.2" />
</g>
</svg>
